<mxfile host="65bd71144e">
    <diagram id="2-o5U1Pwo-7tJ9eDuyGV" name="architecture">
        <mxGraphModel dx="690" dy="567" grid="1" gridSize="10" guides="1" tooltips="1" connect="1" arrows="1" fold="1" page="1" pageScale="1" pageWidth="827" pageHeight="1169" math="0" shadow="0">
            <root>
                <mxCell id="0"/>
                <mxCell id="1" parent="0"/>
                <mxCell id="2" value="不動産管理システム" style="shape=process;whiteSpace=wrap;html=1;backgroundOutline=1;" vertex="1" parent="1">
                    <mxGeometry x="254" y="130" width="160" height="60" as="geometry"/>
                </mxCell>
                <mxCell id="3" value="統計管理" style="ellipse;whiteSpace=wrap;html=1;" vertex="1" parent="1">
                    <mxGeometry x="239" y="320" width="190" height="100" as="geometry"/>
                </mxCell>
                <mxCell id="5" value="" style="endArrow=classic;html=1;exitX=0.5;exitY=1;exitDx=0;exitDy=0;entryX=0.5;entryY=0;entryDx=0;entryDy=0;" edge="1" parent="1" source="2" target="3">
                    <mxGeometry width="50" height="50" relative="1" as="geometry">
                        <mxPoint x="330" y="320" as="sourcePoint"/>
                        <mxPoint x="380" y="270" as="targetPoint"/>
                    </mxGeometry>
                </mxCell>
                <mxCell id="6" value="Actor" style="shape=umlActor;verticalLabelPosition=bottom;verticalAlign=top;html=1;outlineConnect=0;" vertex="1" parent="1">
                    <mxGeometry x="80" y="330" width="30" height="60" as="geometry"/>
                </mxCell>
                <mxCell id="7" value="" style="endArrow=classic;html=1;exitX=0.5;exitY=0.5;exitDx=0;exitDy=0;exitPerimeter=0;entryX=0;entryY=0.5;entryDx=0;entryDy=0;" edge="1" parent="1" source="6" target="3">
                    <mxGeometry width="50" height="50" relative="1" as="geometry">
                        <mxPoint x="330" y="420" as="sourcePoint"/>
                        <mxPoint x="380" y="370" as="targetPoint"/>
                    </mxGeometry>
                </mxCell>
                <mxCell id="8" value="System context" style="text;html=1;strokeColor=none;fillColor=none;align=center;verticalAlign=middle;whiteSpace=wrap;rounded=0;fontSize=19;fontFamily=Courier New;" vertex="1" parent="1">
                    <mxGeometry x="60" y="40" width="170" height="30" as="geometry"/>
                </mxCell>
            </root>
        </mxGraphModel>
    </diagram>
    <diagram id="mqhYBLrUxtjFdQs51USM" name="User case mode">
        <mxGraphModel dx="690" dy="1736" grid="1" gridSize="10" guides="1" tooltips="1" connect="1" arrows="1" fold="1" page="1" pageScale="1" pageWidth="827" pageHeight="1169" math="0" shadow="0">
            <root>
                <mxCell id="CAcM5h2zT_rix6jCmabe-0"/>
                <mxCell id="CAcM5h2zT_rix6jCmabe-1" parent="CAcM5h2zT_rix6jCmabe-0"/>
                <mxCell id="KugXX5dkTvGhBRWu_H-B-0" value="統計管理" style="ellipse;whiteSpace=wrap;html=1;fontFamily=Courier New;fontSize=19;" vertex="1" parent="CAcM5h2zT_rix6jCmabe-1">
                    <mxGeometry x="130" y="-350" width="460" height="300" as="geometry"/>
                </mxCell>
                <mxCell id="TVT99f8Mo8HbX8ZyI4ve-0" value="view" style="ellipse;whiteSpace=wrap;html=1;fontFamily=Courier New;fontSize=19;" vertex="1" parent="CAcM5h2zT_rix6jCmabe-1">
                    <mxGeometry x="190" y="-260" width="90" height="60" as="geometry"/>
                </mxCell>
                <mxCell id="TVT99f8Mo8HbX8ZyI4ve-1" value="user" style="shape=umlActor;verticalLabelPosition=bottom;verticalAlign=top;html=1;outlineConnect=0;fontFamily=Courier New;fontSize=19;" vertex="1" parent="CAcM5h2zT_rix6jCmabe-1">
                    <mxGeometry x="30" y="-290" width="30" height="60" as="geometry"/>
                </mxCell>
                <mxCell id="TVT99f8Mo8HbX8ZyI4ve-2" value="" style="endArrow=classic;html=1;fontFamily=Courier New;fontSize=19;entryX=0.018;entryY=0.8;entryDx=0;entryDy=0;entryPerimeter=0;" edge="1" parent="CAcM5h2zT_rix6jCmabe-1" source="TVT99f8Mo8HbX8ZyI4ve-5" target="TVT99f8Mo8HbX8ZyI4ve-4">
                    <mxGeometry width="50" height="50" relative="1" as="geometry">
                        <mxPoint x="330" y="-180" as="sourcePoint"/>
                        <mxPoint x="380" y="-230" as="targetPoint"/>
                    </mxGeometry>
                </mxCell>
                <mxCell id="TVT99f8Mo8HbX8ZyI4ve-3" value="" style="endArrow=classic;html=1;fontFamily=Courier New;fontSize=19;entryX=0;entryY=0.5;entryDx=0;entryDy=0;" edge="1" parent="CAcM5h2zT_rix6jCmabe-1" source="TVT99f8Mo8HbX8ZyI4ve-1" target="TVT99f8Mo8HbX8ZyI4ve-0">
                    <mxGeometry width="50" height="50" relative="1" as="geometry">
                        <mxPoint x="90" y="-130" as="sourcePoint"/>
                        <mxPoint x="380" y="-230" as="targetPoint"/>
                    </mxGeometry>
                </mxCell>
                <mxCell id="TVT99f8Mo8HbX8ZyI4ve-4" value="edit" style="ellipse;whiteSpace=wrap;html=1;fontFamily=Courier New;fontSize=19;" vertex="1" parent="CAcM5h2zT_rix6jCmabe-1">
                    <mxGeometry x="230" y="-180" width="90" height="60" as="geometry"/>
                </mxCell>
                <mxCell id="TVT99f8Mo8HbX8ZyI4ve-5" value="admin" style="shape=umlActor;verticalLabelPosition=bottom;verticalAlign=top;html=1;outlineConnect=0;fontFamily=Courier New;fontSize=19;" vertex="1" parent="CAcM5h2zT_rix6jCmabe-1">
                    <mxGeometry x="100" y="-130" width="30" height="60" as="geometry"/>
                </mxCell>
            </root>
        </mxGraphModel>
    </diagram>
    <diagram id="CE_BhMlzEkZjJgNdHg6J" name="NFR">
        <mxGraphModel dx="690" dy="567" grid="1" gridSize="10" guides="1" tooltips="1" connect="1" arrows="1" fold="1" page="1" pageScale="1" pageWidth="827" pageHeight="1169" math="0" shadow="0">
            <root>
                <mxCell id="M74L7A3Clt21dNZ6silR-0"/>
                <mxCell id="M74L7A3Clt21dNZ6silR-1" parent="M74L7A3Clt21dNZ6silR-0"/>
            </root>
        </mxGraphModel>
    </diagram>
</mxfile>